<svg version="1.1" id="Layer_1" xmlns="http://www.w3.org/2000/svg" xmlns:xlink="http://www.w3.org/1999/xlink" x="0px" y="0px"
	 viewBox="0 0 405.98 89.93" style="enable-background:new 0 0 405.98 89.93;" xml:space="preserve">
<style type="text/css">
	.st0{fill:#007982;}
	.st1{fill:#C1F318;}
	.st2{fill:#FFFFFF;}
	.st3{fill:#D1D3D4;}
	.st4{fill:#047982;}
	.st5{fill:#DAE7A1;}
	.st6{fill:none;stroke:#007982;stroke-width:0.75;stroke-miterlimit:10;stroke-dasharray:2.9892,5.9783;}
	.st7{fill:none;stroke:#007982;stroke-width:0.75;stroke-miterlimit:10;stroke-dasharray:2.9822,5.9644;}
	.st8{fill:none;stroke:#007982;stroke-width:0.75;stroke-miterlimit:10;stroke-dasharray:2.9749,5.9499;}
	.st9{fill:none;stroke:#C1F318;stroke-miterlimit:10;}
</style>
<rect x="-64.44" y="2014.01" class="st0" width="934.78" height="599.75"/>
<g>
	<path class="st1" d="M302.37,2389.22l-1.26-3.09h-5.81l-1.26,3.09h-3.08l5.89-13.89h2.79l5.89,13.89H302.37z M298.21,2378.97
		l-1.83,4.47h3.65L298.21,2378.97z"/>
	<path class="st1" d="M307.79,2389.22v-14.38h2.98v14.38H307.79z"/>
	<path class="st1" d="M321.5,2392.37v-4.67c-0.73,0.98-1.73,1.71-3.28,1.71c-2.45,0-4.79-1.93-4.79-5.46v-0.04
		c0-3.53,2.3-5.46,4.79-5.46c1.59,0,2.57,0.73,3.28,1.58v-1.38h2.99v13.71H321.5z M321.54,2383.92c0-1.75-1.16-2.92-2.55-2.92
		s-2.57,1.14-2.57,2.92v0.04c0,1.75,1.18,2.92,2.57,2.92s2.55-1.16,2.55-2.92V2383.92z"/>
	<path class="st1" d="M334.04,2389.22v-1.5c-0.69,0.89-1.57,1.69-3.08,1.69c-2.26,0-3.57-1.5-3.57-3.92v-6.84h2.98v5.89
		c0,1.42,0.67,2.15,1.81,2.15c1.14,0,1.87-0.73,1.87-2.15v-5.89h2.99v10.56H334.04z"/>
	<path class="st1" d="M340.07,2377.5v-2.66h3.14v2.66H340.07z M340.15,2389.22v-10.56h2.98v10.56H340.15z"/>
	<path class="st1" d="M346.4,2389.22v-14.38h2.98v14.38H346.4z"/>
	<path class="st1" d="M362.28,2384.98h-7.33c0.29,1.36,1.24,2.07,2.57,2.07c1,0,1.73-0.32,2.55-1.08l1.71,1.52
		c-0.98,1.22-2.4,1.97-4.3,1.97c-3.16,0-5.5-2.23-5.5-5.46v-0.04c0-3.01,2.14-5.5,5.2-5.5c3.52,0,5.13,2.74,5.13,5.73v0.04
		C362.32,2384.53,362.3,2384.71,362.28,2384.98z M357.2,2380.87c-1.24,0-2.04,0.89-2.28,2.25h4.5
		C359.24,2381.77,358.45,2380.87,357.2,2380.87z"/>
	<path class="st1" d="M371.04,2381.59c-1.98,0-3.2,1.2-3.2,3.72v3.9h-2.98v-10.56h2.98v2.13c0.61-1.46,1.59-2.4,3.36-2.32v3.13
		H371.04z"/>
	<path class="st1" d="M387.18,2389.22v-1.52c-0.73,0.98-1.73,1.71-3.28,1.71c-2.45,0-4.79-1.93-4.79-5.46v-0.04
		c0-3.53,2.3-5.46,4.79-5.46c1.59,0,2.57,0.73,3.28,1.58v-5.2h2.99v14.38H387.18z M387.22,2383.92c0-1.75-1.16-2.92-2.55-2.92
		s-2.57,1.14-2.57,2.92v0.04c0,1.75,1.18,2.92,2.57,2.92s2.55-1.16,2.55-2.92V2383.92z"/>
	<path class="st1" d="M402.93,2384.98h-7.33c0.29,1.36,1.24,2.07,2.57,2.07c1,0,1.73-0.32,2.55-1.08l1.71,1.52
		c-0.98,1.22-2.4,1.97-4.3,1.97c-3.16,0-5.5-2.23-5.5-5.46v-0.04c0-3.01,2.14-5.5,5.2-5.5c3.52,0,5.13,2.74,5.13,5.73v0.04
		C402.97,2384.53,402.95,2384.71,402.93,2384.98z M397.85,2380.87c-1.24,0-2.04,0.89-2.28,2.25h4.5
		C399.89,2381.77,399.1,2380.87,397.85,2380.87z"/>
	<path class="st1" d="M411.85,2389.22v-14.38h2.98v14.38H411.85z"/>
	<path class="st1" d="M424.12,2389.22v-1.14c-0.73,0.81-1.73,1.34-3.18,1.34c-1.98,0-3.61-1.14-3.61-3.23v-0.04
		c0-2.3,1.75-3.37,4.24-3.37c1.06,0,1.83,0.18,2.57,0.43v-0.18c0-1.24-0.77-1.93-2.26-1.93c-1.14,0-1.94,0.22-2.91,0.57l-0.75-2.29
		c1.16-0.51,2.3-0.85,4.08-0.85c3.26,0,4.69,1.69,4.69,4.55v6.13H424.12z M424.18,2384.96c-0.51-0.24-1.18-0.39-1.9-0.39
		c-1.28,0-2.06,0.51-2.06,1.46v0.04c0,0.81,0.67,1.28,1.63,1.28c1.39,0,2.34-0.77,2.34-1.85V2384.96z"/>
	<path class="st1" d="M436.16,2389.41c-1.59,0-2.57-0.73-3.28-1.58v4.53h-2.98v-13.71h2.98v1.52c0.73-0.99,1.73-1.71,3.28-1.71
		c2.45,0,4.79,1.93,4.79,5.46v0.04C440.95,2387.48,438.65,2389.41,436.16,2389.41z M437.97,2383.92c0-1.75-1.18-2.92-2.57-2.92
		s-2.55,1.16-2.55,2.92v0.04c0,1.75,1.16,2.92,2.55,2.92s2.57-1.14,2.57-2.92V2383.92z"/>
	<path class="st1" d="M447.02,2389.4c-1.83,0-3.06-0.73-3.06-3.17v-5h-1.26v-2.56h1.26v-2.7h2.98v2.7h2.47v2.56h-2.47v4.51
		c0,0.69,0.29,1.02,0.96,1.02c0.55,0,1.04-0.14,1.47-0.37v2.4C448.75,2389.16,448.02,2389.4,447.02,2389.4z"/>
	<path class="st1" d="M456.8,2389.45c-3.26,0-5.68-2.42-5.68-5.46v-0.04c0-3.03,2.44-5.5,5.71-5.5c3.26,0,5.68,2.42,5.68,5.46v0.04
		C462.51,2386.99,460.08,2389.45,456.8,2389.45z M459.57,2383.96c0-1.56-1.12-2.92-2.77-2.92c-1.71,0-2.73,1.32-2.73,2.88v0.04
		c0,1.56,1.12,2.92,2.77,2.92c1.71,0,2.73-1.32,2.73-2.88V2383.96z"/>
	<path class="st1" d="M471.25,2389.41c-1.59,0-2.57-0.73-3.28-1.58v4.53h-2.98v-13.71h2.98v1.52c0.73-0.99,1.73-1.71,3.28-1.71
		c2.45,0,4.79,1.93,4.79,5.46v0.04C476.04,2387.48,473.75,2389.41,471.25,2389.41z M473.06,2383.92c0-1.75-1.18-2.92-2.57-2.92
		s-2.55,1.16-2.55,2.92v0.04c0,1.75,1.16,2.92,2.55,2.92s2.57-1.14,2.57-2.92V2383.92z"/>
	<path class="st1" d="M482.25,2389.41c-1.47,0-3.12-0.49-4.52-1.6l1.28-1.97c1.14,0.83,2.34,1.26,3.32,1.26
		c0.86,0,1.26-0.32,1.26-0.79v-0.04c0-0.65-1.02-0.87-2.18-1.22c-1.47-0.43-3.14-1.12-3.14-3.17v-0.04c0-2.15,1.73-3.35,3.85-3.35
		c1.34,0,2.79,0.45,3.93,1.22l-1.14,2.07c-1.04-0.61-2.08-0.98-2.85-0.98c-0.73,0-1.1,0.31-1.1,0.73v0.04c0,0.59,1,0.87,2.14,1.26
		c1.47,0.49,3.18,1.2,3.18,3.13v0.04C486.28,2388.35,484.53,2389.41,482.25,2389.41z"/>
</g>
<g>
	<path class="st1" d="M346.42,2416.88c-2.47,0-4.18-1.74-4.18-4.1v-0.02c0-2.27,1.76-4.12,4.17-4.12c1.43,0,2.29,0.39,3.12,1.09
		l-1.1,1.33c-0.61-0.51-1.16-0.81-2.08-0.81c-1.27,0-2.28,1.13-2.28,2.48v0.02c0,1.46,1,2.53,2.41,2.53c0.64,0,1.2-0.16,1.65-0.48
		v-1.14h-1.76v-1.51h3.45v3.46C349,2416.31,347.88,2416.88,346.42,2416.88z"/>
	<path class="st1" d="M354.48,2416.88c-1.88,0-3.28-1.4-3.28-3.15v-0.02c0-1.75,1.41-3.18,3.3-3.18c1.88,0,3.28,1.4,3.28,3.15v0.02
		C357.79,2415.46,356.38,2416.88,354.48,2416.88z M356.08,2413.7c0-0.9-0.65-1.68-1.6-1.68c-0.99,0-1.58,0.76-1.58,1.66v0.02
		c0,0.9,0.65,1.68,1.6,1.68c0.99,0,1.58-0.76,1.58-1.66V2413.7z"/>
	<path class="st1" d="M361.27,2416.84c-1.06,0-1.77-0.42-1.77-1.83v-2.89h-0.73v-1.48h0.73v-1.56h1.73v1.56h1.43v1.48h-1.43v2.61
		c0,0.4,0.17,0.59,0.56,0.59c0.32,0,0.6-0.08,0.85-0.22v1.39C362.27,2416.71,361.85,2416.84,361.27,2416.84z"/>
	<path class="st1" d="M367.95,2416.74v-3.4c0-0.82-0.39-1.24-1.04-1.24s-1.08,0.42-1.08,1.24v3.4h-1.73v-8.31h1.73v3.07
		c0.4-0.51,0.91-0.98,1.78-0.98c1.31,0,2.07,0.86,2.07,2.27v3.95H367.95z"/>
	<path class="st1" d="M374.92,2416.74v-0.66c-0.42,0.47-1,0.77-1.84,0.77c-1.15,0-2.09-0.66-2.09-1.87v-0.02
		c0-1.33,1.01-1.95,2.45-1.95c0.61,0,1.06,0.1,1.49,0.25v-0.1c0-0.72-0.44-1.12-1.31-1.12c-0.66,0-1.12,0.13-1.68,0.33l-0.43-1.32
		c0.67-0.3,1.33-0.49,2.36-0.49c1.88,0,2.71,0.98,2.71,2.63v3.54H374.92z M374.96,2414.28c-0.3-0.14-0.68-0.23-1.1-0.23
		c-0.74,0-1.19,0.3-1.19,0.84v0.02c0,0.47,0.39,0.74,0.94,0.74c0.81,0,1.35-0.44,1.35-1.07V2414.28z"/>
	<path class="st1" d="M385.82,2416.74v-3.4c0-0.82-0.36-1.24-1.01-1.24c-0.65,0-1.04,0.42-1.04,1.24v3.4h-1.73v-3.4
		c0-0.82-0.36-1.24-1.01-1.24c-0.65,0-1.04,0.42-1.04,1.24v3.4h-1.73v-6.1h1.73v0.87c0.4-0.51,0.92-0.98,1.79-0.98
		c0.79,0,1.4,0.35,1.71,0.97c0.53-0.63,1.17-0.97,2-0.97c1.28,0,2.05,0.77,2.05,2.24v3.97H385.82z"/>
	<path class="st1" d="M392.6,2414.04v-1.66h3.5v1.66H392.6z"/>
	<path class="st1" d="M405.17,2416.74h-3.78v-7.97h3.69c1.62,0,2.62,0.81,2.62,2.06v0.02c0,0.9-0.48,1.4-1.04,1.72
		c0.92,0.35,1.49,0.89,1.49,1.96v0.02C408.14,2416.01,406.96,2416.74,405.17,2416.74z M405.96,2411.13c0-0.52-0.41-0.82-1.15-0.82
		h-1.73v1.68h1.61c0.77,0,1.26-0.25,1.26-0.84V2411.13z M406.41,2414.32c0-0.54-0.4-0.87-1.29-0.87h-2.02v1.75h2.08
		c0.77,0,1.24-0.27,1.24-0.87V2414.32z"/>
	<path class="st1" d="M412.57,2416.88c-1.88,0-3.28-1.4-3.28-3.15v-0.02c0-1.75,1.41-3.18,3.3-3.18c1.88,0,3.28,1.4,3.28,3.15v0.02
		C415.87,2415.46,414.46,2416.88,412.57,2416.88z M414.17,2413.7c0-0.9-0.65-1.68-1.6-1.68c-0.99,0-1.58,0.76-1.58,1.66v0.02
		c0,0.9,0.65,1.68,1.6,1.68c0.99,0,1.58-0.76,1.58-1.66V2413.7z"/>
	<path class="st1" d="M417.38,2416.74v-8.31h1.73v8.31H417.38z"/>
	<path class="st1" d="M425.3,2416.74v-0.88c-0.42,0.57-1,0.99-1.9,0.99c-1.42,0-2.77-1.12-2.77-3.15v-0.02
		c0-2.04,1.33-3.15,2.77-3.15c0.92,0,1.49,0.42,1.9,0.91v-3.01h1.73v8.31H425.3z M425.32,2413.68c0-1.01-0.67-1.68-1.48-1.68
		s-1.49,0.66-1.49,1.68v0.02c0,1.01,0.68,1.68,1.49,1.68s1.48-0.67,1.48-1.68V2413.68z"/>
</g>
<g>
	<path class="st1" d="M256.31,2270.56c-2.34,0-4.08-1.81-4.08-4.1v-0.02c0-2.27,1.7-4.12,4.14-4.12c1.5,0,2.4,0.5,3.13,1.23
		l-1.11,1.29c-0.61-0.56-1.24-0.9-2.03-0.9c-1.34,0-2.3,1.12-2.3,2.48v0.02c0,1.37,0.94,2.5,2.3,2.5c0.91,0,1.46-0.36,2.09-0.93
		l1.11,1.13C258.75,2270.01,257.85,2270.56,256.31,2270.56z"/>
	<path class="st1" d="M263.84,2270.56c-1.88,0-3.28-1.4-3.28-3.15v-0.02c0-1.75,1.41-3.18,3.3-3.18c1.88,0,3.28,1.4,3.28,3.15v0.02
		C267.14,2269.13,265.73,2270.56,263.84,2270.56z M265.44,2267.38c0-0.9-0.65-1.68-1.6-1.68c-0.99,0-1.58,0.76-1.58,1.66v0.02
		c0,0.9,0.65,1.69,1.6,1.69c0.99,0,1.58-0.76,1.58-1.66V2267.38z"/>
	<path class="st1" d="M272.42,2270.42v-3.4c0-0.82-0.39-1.24-1.04-1.24s-1.08,0.42-1.08,1.24v3.4h-1.73v-6.1h1.73v0.87
		c0.4-0.51,0.91-0.98,1.78-0.98c1.31,0,2.07,0.87,2.07,2.27v3.95H272.42z"/>
	<path class="st1" d="M277.96,2270.53c-0.85,0-1.81-0.28-2.61-0.92l0.74-1.14c0.66,0.48,1.35,0.73,1.92,0.73
		c0.5,0,0.73-0.18,0.73-0.46v-0.02c0-0.38-0.59-0.5-1.26-0.71c-0.85-0.25-1.82-0.65-1.82-1.83v-0.02c0-1.24,1-1.94,2.23-1.94
		c0.77,0,1.61,0.26,2.27,0.71l-0.66,1.2c-0.6-0.35-1.2-0.57-1.65-0.57c-0.42,0-0.64,0.18-0.64,0.42v0.02c0,0.34,0.58,0.5,1.24,0.73
		c0.85,0.28,1.84,0.69,1.84,1.81v0.02C280.28,2269.92,279.27,2270.53,277.96,2270.53z"/>
	<path class="st1" d="M283.64,2270.52c-1.06,0-1.77-0.42-1.77-1.83v-2.89h-0.73v-1.48h0.73v-1.56h1.73v1.56h1.43v1.48h-1.43v2.61
		c0,0.4,0.17,0.59,0.56,0.59c0.32,0,0.6-0.08,0.85-0.22v1.39C284.64,2270.39,284.22,2270.52,283.64,2270.52z"/>
	<path class="st1" d="M290.06,2266.01c-1.15,0-1.85,0.69-1.85,2.15v2.25h-1.73v-6.1h1.73v1.23c0.35-0.84,0.92-1.39,1.94-1.34v1.81
		H290.06z"/>
	<path class="st1" d="M295.21,2270.42v-0.87c-0.4,0.51-0.91,0.98-1.78,0.98c-1.31,0-2.07-0.87-2.07-2.27v-3.95h1.73v3.4
		c0,0.82,0.39,1.24,1.04,1.24s1.08-0.42,1.08-1.24v-3.4h1.73v6.1H295.21z"/>
	<path class="st1" d="M301.53,2270.56c-1.83,0-3.17-1.41-3.17-3.15v-0.02c0-1.74,1.33-3.18,3.19-3.18c1.15,0,1.86,0.39,2.43,1.02
		l-1.06,1.14c-0.39-0.41-0.77-0.67-1.39-0.67c-0.86,0-1.48,0.76-1.48,1.66v0.02c0,0.93,0.6,1.69,1.54,1.69
		c0.58,0,0.98-0.25,1.4-0.65l1.01,1.02C303.42,2270.09,302.74,2270.56,301.53,2270.56z"/>
	<path class="st1" d="M308.02,2270.56c-1.83,0-3.17-1.41-3.17-3.15v-0.02c0-1.74,1.33-3.18,3.19-3.18c1.15,0,1.86,0.39,2.43,1.02
		l-1.06,1.14c-0.39-0.41-0.77-0.67-1.39-0.67c-0.86,0-1.48,0.76-1.48,1.66v0.02c0,0.93,0.6,1.69,1.54,1.69
		c0.58,0,0.98-0.25,1.4-0.65l1.01,1.02C309.92,2270.09,309.24,2270.56,308.02,2270.56z"/>
	<path class="st1" d="M311.85,2263.65v-1.54h1.82v1.54H311.85z M311.89,2270.42v-6.1h1.73v6.1H311.89z"/>
	<path class="st1" d="M318.41,2270.56c-1.88,0-3.28-1.4-3.28-3.15v-0.02c0-1.75,1.41-3.18,3.3-3.18c1.88,0,3.28,1.4,3.28,3.15v0.02
		C321.71,2269.13,320.3,2270.56,318.41,2270.56z M320.01,2267.38c0-0.9-0.65-1.68-1.6-1.68c-0.99,0-1.58,0.76-1.58,1.66v0.02
		c0,0.9,0.65,1.69,1.6,1.69c0.99,0,1.58-0.76,1.58-1.66V2267.38z M317.76,2263.65l1.28-2.02l1.49,0.65l-1.45,1.37H317.76z"/>
	<path class="st1" d="M326.99,2270.42v-3.4c0-0.82-0.39-1.24-1.04-1.24s-1.08,0.42-1.08,1.24v3.4h-1.73v-6.1h1.73v0.87
		c0.4-0.51,0.91-0.98,1.78-0.98c1.31,0,2.07,0.87,2.07,2.27v3.95H326.99z"/>
	<path class="st1" d="M339.63,2267.97h-4.23c0.17,0.79,0.72,1.19,1.49,1.19c0.58,0,1-0.18,1.48-0.63l0.99,0.88
		c-0.57,0.71-1.39,1.14-2.49,1.14c-1.83,0-3.18-1.29-3.18-3.15v-0.02c0-1.74,1.24-3.18,3.01-3.18c2.03,0,2.96,1.58,2.96,3.31v0.02
		C339.65,2267.71,339.64,2267.81,339.63,2267.97z M336.69,2265.59c-0.72,0-1.18,0.51-1.32,1.3h2.6
		C337.87,2266.12,337.42,2265.59,336.69,2265.59z"/>
	<path class="st1" d="M343.25,2270.53c-0.85,0-1.81-0.28-2.61-0.92l0.74-1.14c0.66,0.48,1.35,0.73,1.92,0.73
		c0.5,0,0.73-0.18,0.73-0.46v-0.02c0-0.38-0.59-0.5-1.26-0.71c-0.85-0.25-1.82-0.65-1.82-1.83v-0.02c0-1.24,1-1.94,2.23-1.94
		c0.77,0,1.61,0.26,2.27,0.71l-0.66,1.2c-0.6-0.35-1.2-0.57-1.65-0.57c-0.42,0-0.64,0.18-0.64,0.42v0.02c0,0.34,0.58,0.5,1.24,0.73
		c0.85,0.28,1.84,0.69,1.84,1.81v0.02C345.58,2269.92,344.57,2270.53,343.25,2270.53z"/>
	<path class="st1" d="M350.62,2270.53c-0.92,0-1.49-0.42-1.9-0.91v2.62h-1.73v-7.92h1.73v0.88c0.42-0.57,1-0.99,1.9-0.99
		c1.42,0,2.77,1.12,2.77,3.15v0.02C353.39,2269.42,352.06,2270.53,350.62,2270.53z M351.66,2267.36c0-1.01-0.68-1.69-1.49-1.69
		s-1.48,0.67-1.48,1.69v0.02c0,1.01,0.67,1.69,1.48,1.69s1.49-0.66,1.49-1.69V2267.36z"/>
	<path class="st1" d="M360.49,2267.97h-4.23c0.17,0.79,0.72,1.19,1.49,1.19c0.58,0,1-0.18,1.48-0.63l0.99,0.88
		c-0.57,0.71-1.39,1.14-2.49,1.14c-1.83,0-3.18-1.29-3.18-3.15v-0.02c0-1.74,1.24-3.18,3.01-3.18c2.03,0,2.96,1.58,2.96,3.31v0.02
		C360.51,2267.71,360.5,2267.81,360.49,2267.97z M357.55,2265.59c-0.72,0-1.18,0.51-1.32,1.3h2.6
		C358.73,2266.12,358.28,2265.59,357.55,2265.59z"/>
	<path class="st1" d="M364.85,2270.56c-1.83,0-3.17-1.41-3.17-3.15v-0.02c0-1.74,1.33-3.18,3.19-3.18c1.15,0,1.86,0.39,2.43,1.02
		l-1.06,1.14c-0.39-0.41-0.77-0.67-1.39-0.67c-0.86,0-1.48,0.76-1.48,1.66v0.02c0,0.93,0.6,1.69,1.54,1.69
		c0.58,0,0.98-0.25,1.4-0.65l1.01,1.02C366.74,2270.09,366.06,2270.56,364.85,2270.56z"/>
	<path class="st1" d="M368.67,2263.65v-1.54h1.82v1.54H368.67z M368.72,2270.42v-6.1h1.73v6.1H368.72z"/>
	<path class="st1" d="M375.81,2270.42v-0.66c-0.42,0.47-1,0.77-1.84,0.77c-1.15,0-2.09-0.66-2.09-1.87v-0.02
		c0-1.33,1.01-1.95,2.45-1.95c0.61,0,1.06,0.1,1.49,0.25v-0.1c0-0.72-0.44-1.12-1.31-1.12c-0.66,0-1.12,0.13-1.68,0.33l-0.43-1.32
		c0.67-0.3,1.33-0.49,2.36-0.49c1.88,0,2.71,0.98,2.71,2.63v3.54H375.81z M375.85,2267.96c-0.3-0.14-0.68-0.23-1.1-0.23
		c-0.74,0-1.19,0.3-1.19,0.84v0.02c0,0.47,0.39,0.74,0.94,0.74c0.81,0,1.35-0.44,1.35-1.07V2267.96z"/>
	<path class="st1" d="M379.23,2270.42v-8.31h1.73v8.31H379.23z"/>
	<path class="st1" d="M389.96,2270.53c-0.92,0-1.49-0.42-1.9-0.91v2.62h-1.73v-7.92h1.73v0.88c0.42-0.57,1-0.99,1.9-0.99
		c1.42,0,2.77,1.12,2.77,3.15v0.02C392.73,2269.42,391.41,2270.53,389.96,2270.53z M391.01,2267.36c0-1.01-0.68-1.69-1.49-1.69
		s-1.48,0.67-1.48,1.69v0.02c0,1.01,0.67,1.69,1.48,1.69s1.49-0.66,1.49-1.69V2267.36z"/>
	<path class="st1" d="M397.75,2270.42v-0.66c-0.42,0.47-1,0.77-1.84,0.77c-1.15,0-2.09-0.66-2.09-1.87v-0.02
		c0-1.33,1.01-1.95,2.45-1.95c0.61,0,1.06,0.1,1.49,0.25v-0.1c0-0.72-0.44-1.12-1.31-1.12c-0.66,0-1.12,0.13-1.68,0.33l-0.43-1.32
		c0.67-0.3,1.33-0.49,2.36-0.49c1.88,0,2.71,0.98,2.71,2.63v3.54H397.75z M397.78,2267.96c-0.3-0.14-0.68-0.23-1.1-0.23
		c-0.74,0-1.19,0.3-1.19,0.84v0.02c0,0.47,0.39,0.74,0.94,0.74c0.81,0,1.35-0.44,1.35-1.07V2267.96z"/>
	<path class="st1" d="M404.66,2266.01c-1.15,0-1.85,0.69-1.85,2.15v2.25h-1.73v-6.1h1.73v1.23c0.35-0.84,0.92-1.39,1.94-1.34v1.81
		H404.66z"/>
	<path class="st1" d="M409.29,2270.42v-0.66c-0.42,0.47-1,0.77-1.84,0.77c-1.15,0-2.09-0.66-2.09-1.87v-0.02
		c0-1.33,1.01-1.95,2.45-1.95c0.61,0,1.06,0.1,1.49,0.25v-0.1c0-0.72-0.44-1.12-1.31-1.12c-0.66,0-1.12,0.13-1.68,0.33l-0.43-1.32
		c0.67-0.3,1.33-0.49,2.36-0.49c1.88,0,2.71,0.98,2.71,2.63v3.54H409.29z M409.33,2267.96c-0.3-0.14-0.68-0.23-1.1-0.23
		c-0.74,0-1.19,0.3-1.19,0.84v0.02c0,0.47,0.39,0.74,0.94,0.74c0.81,0,1.35-0.44,1.35-1.07V2267.96z"/>
	<path class="st1" d="M419.2,2270.56c-1.88,0-3.28-1.4-3.28-3.15v-0.02c0-1.75,1.41-3.18,3.3-3.18c1.88,0,3.28,1.4,3.28,3.15v0.02
		C422.5,2269.13,421.1,2270.56,419.2,2270.56z M420.8,2267.38c0-0.9-0.65-1.68-1.6-1.68c-0.99,0-1.58,0.76-1.58,1.66v0.02
		c0,0.9,0.65,1.69,1.6,1.69c0.99,0,1.58-0.76,1.58-1.66V2267.38z"/>
	<path class="st1" d="M427.51,2266.01c-1.15,0-1.85,0.69-1.85,2.15v2.25h-1.73v-6.1h1.73v1.23c0.35-0.84,0.92-1.39,1.94-1.34v1.81
		H427.51z"/>
	<path class="st1" d="M432.66,2270.42v-0.87c-0.4,0.51-0.91,0.98-1.78,0.98c-1.31,0-2.07-0.87-2.07-2.27v-3.95h1.73v3.4
		c0,0.82,0.39,1.24,1.04,1.24s1.08-0.42,1.08-1.24v-3.4h1.73v6.1H432.66z"/>
	<path class="st1" d="M438.83,2272.26c-0.99,0-1.92-0.23-2.69-0.64l0.59-1.3c0.62,0.35,1.25,0.56,2.05,0.56
		c1.18,0,1.74-0.57,1.74-1.66v-0.3c-0.51,0.61-1.07,0.99-1.99,0.99c-1.42,0-2.7-1.04-2.7-2.85v-0.02c0-1.82,1.31-2.85,2.7-2.85
		c0.94,0,1.5,0.4,1.96,0.91v-0.8h1.73v4.72C442.23,2271.34,441.09,2272.26,438.83,2272.26z M440.53,2267.05
		c0-0.83-0.65-1.41-1.49-1.41s-1.48,0.58-1.48,1.41v0.02c0,0.84,0.64,1.41,1.48,1.41s1.49-0.58,1.49-1.41V2267.05z"/>
	<path class="st1" d="M447.52,2270.42v-0.66c-0.42,0.47-1,0.77-1.84,0.77c-1.15,0-2.09-0.66-2.09-1.87v-0.02
		c0-1.33,1.01-1.95,2.45-1.95c0.61,0,1.06,0.1,1.49,0.25v-0.1c0-0.72-0.44-1.12-1.31-1.12c-0.66,0-1.12,0.13-1.68,0.33l-0.43-1.32
		c0.67-0.3,1.33-0.49,2.36-0.49c1.88,0,2.71,0.98,2.71,2.63v3.54H447.52z M447.55,2267.96c-0.3-0.14-0.68-0.23-1.1-0.23
		c-0.74,0-1.19,0.3-1.19,0.84v0.02c0,0.47,0.39,0.74,0.94,0.74c0.81,0,1.35-0.44,1.35-1.07V2267.96z"/>
</g>
<g>
	<path class="st1" d="M222.34,2358.8c-14.28-0.19-25.64-7.95-29.85-20.71c-5.91-17.92,4.41-37.62,24.99-40.32
		c11.31-1.48,21.48,1.11,29.08,9.99c8.18,9.57,9.52,20.72,5.04,32.27c-4.32,11.13-13.11,16.88-24.77,18.47
		c-1.22,0.17-2.45,0.2-3.68,0.29C222.88,2358.82,222.61,2358.8,222.34,2358.8z M206.08,2328.99c0.13,4.49,1.73,9.41,6.29,12.81
		c5.61,4.19,11.79,4.66,17.93,1.46c6.31-3.29,8.61-9.12,8.35-15.93c-0.3-7.89-4.32-13.48-10.79-15.57
		C216.55,2308.11,206.15,2315.85,206.08,2328.99z"/>
	<path class="st1" d="M319.66,2357.68c-8.77,0.82-16.78,0.2-26.93-12.48c-0.87-1.08-3.35-5.77-3.35-5.77l-7.73,0.03v18.06h-15.09
		v-59.02c0,0,18.7-0.02,27.58,0.17c4.56,0.1,8.91,1.36,12.77,3.89c10.37,6.77,10.9,22.96,1.02,30.96c-1.21,0.98-2.52,1.83-3.9,2.83
		C309.32,2344.18,313.91,2350.02,319.66,2357.68z M281.71,2311.03v16c0,0,7.68,0.3,11.4-0.26c3.87-0.57,6.13-3.93,6.17-7.7
		c0.04-3.59-2.46-6.9-6.29-7.63C289.88,2310.86,281.71,2311.03,281.71,2311.03z"/>
	<path class="st1" d="M354.73,2358.5c3.32-0.03,6.62-0.52,9.9-1.43c9.32-2.61,15.38-9.73,15.92-19.6c0.51-9.4,0.45-38.89,0.45-38.89
		H365.6c0,0,0.1,24.04-0.14,34.83c-0.16,6.92-4.81,11.36-10.73,11.49h-0.05c-5.92-0.13-10.57-4.57-10.73-11.49
		c-0.25-10.79-0.14-34.83-0.14-34.83h-15.39c0,0-0.07,29.49,0.45,38.89c0.54,9.87,6.6,17,15.92,19.6c3.28,0.92,6.58,1.4,9.9,1.43
		H354.73z"/>
	<path class="st1" d="M444.01,2315.71c-3.76-1.38-7.47-3.28-11.39-4.02c-3.74-0.7-7.81-0.77-11.55-0.1
		c-8.67,1.56-13.59,8.89-12.85,18.18c0.87,10.97,9.75,17.32,21.04,15.03c1.06-0.21,2.1-0.49,3.25-0.77
		c-1.65-11.61,2.56-19.97,11.89-22.21c0,0.83,2.62,30.64,2.62,30.64s-0.49,0.37-1.01,0.65c-11.41,6.01-23.21,7.91-35.43,2.67
		c-12.09-5.18-19.06-17.65-17.45-30.71c2.07-16.72,13.92-27.36,30.82-27.69c5.73-0.11,11.28,0.71,16.67,2.68
		c1.24,0.45,1.79,0.82,1.79,0.82S443.54,2311.59,444.01,2315.71z"/>
	<path class="st1" d="M454.42,2357.69c3.53-8.23,25.28-59.14,25.28-59.14h10.51l25.05,59.07h-15.83l-4-10.56H474.1l-4.07,10.62
		C470.03,2357.69,459.51,2357.69,454.42,2357.69z M490.78,2335.11c-2-5.19-3.89-10.08-5.97-15.47c-2.13,5.47-4.04,10.38-6.02,15.47
		C482.85,2335.11,486.65,2335.11,490.78,2335.11z"/>
	<g>
		<path class="st1" d="M515.64,2269.91c0.01,0,0.01,0,0.02,0c0-0.04-0.01-0.08-0.01-0.12
			C515.65,2269.78,515.41,2269.97,515.64,2269.91z"/>
		<path class="st1" d="M550.45,2290.32c-5.18-15.67-21.59-24.47-37.34-20.41c0.86,18.43,13.06,33.89,29.78,39.58
			c-6.45,4.36-10.79,11.61-11.16,19.89l0.24-0.14c8.57-3.27,14.92-9.96,17.99-17.98c0.68-1.77,1.2-3.61,1.55-5.49
			C552.44,2300.77,552.16,2295.48,550.45,2290.32z"/>
		<path class="st1" d="M596.81,2269.99c-15.84-4.25-32.44,4.56-37.65,20.33c-1.7,5.14-1.99,10.4-1.08,15.38
			c0.35,1.92,0.88,3.8,1.58,5.61c3.08,8,9.42,14.68,17.98,17.94l0.56,0.15c-0.37-8.29-4.71-15.54-11.16-19.9
			C583.72,2303.81,595.91,2288.38,596.81,2269.99z"/>
	</g>
</g>
<rect x="-67.11" y="648.23" transform="matrix(-1 4.489774e-11 -4.489774e-11 -1 800.5473 1896.199)" class="st2" width="934.78" height="599.75"/>
<g>
	<path class="st3" d="M344.35,890.94c0.01,0,0.02-0.01,0.04-0.01c0-0.08-0.01-0.15-0.01-0.23
		C344.38,890.7,343.91,891.05,344.35,890.94z"/>
	<path class="st3" d="M411.19,930.13c-9.95-30.09-41.47-46.98-71.71-39.2c1.66,35.39,25.09,65.09,57.19,76.02
		c-12.39,8.37-20.72,22.29-21.43,38.19l0.46-0.27c16.45-6.27,28.65-19.13,34.56-34.53c1.3-3.4,2.3-6.93,2.97-10.54
		C415.01,950.2,414.47,940.04,411.19,930.13z"/>
	<path class="st3" d="M500.23,891.09c-30.42-8.16-62.29,8.76-72.31,39.04c-3.26,9.87-3.82,19.98-2.07,29.53
		c0.68,3.69,1.69,7.29,3.03,10.76c5.92,15.36,18.1,28.18,34.52,34.44l1.07,0.29c-0.7-15.91-9.04-29.84-21.43-38.21
		C475.1,956.04,498.5,926.41,500.23,891.09z"/>
</g>
<rect x="-67.11" y="1336.3" transform="matrix(-1 4.489774e-11 -4.489774e-11 -1 800.5473 3272.3489)" class="st4" width="934.78" height="599.75"/>
<g>
	<path class="st1" d="M344.35,1580.01c0.01,0,0.02-0.01,0.04-0.01c0-0.08-0.01-0.15-0.01-0.23
		C344.38,1579.77,343.91,1580.13,344.35,1580.01z"/>
	<path class="st1" d="M411.19,1619.21c-9.95-30.09-41.47-46.98-71.71-39.2c1.66,35.39,25.09,65.09,57.19,76.02
		c-12.39,8.37-20.72,22.29-21.43,38.19l0.46-0.27c16.45-6.27,28.65-19.13,34.56-34.53c1.3-3.4,2.3-6.93,2.97-10.54
		C415.01,1639.28,414.47,1629.12,411.19,1619.21z"/>
	<path class="st1" d="M500.23,1580.16c-30.42-8.16-62.29,8.76-72.31,39.04c-3.26,9.87-3.82,19.98-2.07,29.53
		c0.68,3.69,1.69,7.29,3.03,10.76c5.92,15.36,18.1,28.18,34.52,34.44l1.07,0.29c-0.7-15.91-9.04-29.84-21.43-38.21
		C475.1,1645.11,498.5,1615.49,500.23,1580.16z"/>
</g>
<g>
	<path class="st0" d="M364.25,424.4l-0.96-2.35h-4.43l-0.96,2.35h-2.35l4.49-10.57h2.12l4.49,10.57H364.25z M361.08,416.6
		l-1.39,3.41h2.78L361.08,416.6z"/>
	<path class="st0" d="M368.38,424.4v-10.95h2.27v10.95H368.38z"/>
	<path class="st0" d="M378.82,426.8v-3.55c-0.55,0.75-1.32,1.3-2.5,1.3c-1.87,0-3.65-1.47-3.65-4.15v-0.03
		c0-2.68,1.75-4.15,3.65-4.15c1.21,0,1.96,0.55,2.5,1.2v-1.05h2.27v10.44H378.82z M378.85,420.36c0-1.33-0.88-2.22-1.94-2.22
		c-1.06,0-1.96,0.87-1.96,2.22v0.03c0,1.33,0.9,2.22,1.96,2.22c1.06,0,1.94-0.89,1.94-2.22V420.36z"/>
	<path class="st0" d="M388.38,424.4v-1.14c-0.52,0.67-1.2,1.29-2.35,1.29c-1.72,0-2.72-1.14-2.72-2.98v-5.2h2.27v4.48
		c0,1.08,0.51,1.64,1.38,1.64s1.42-0.55,1.42-1.64v-4.48h2.27v8.04H388.38z"/>
	<path class="st0" d="M392.97,415.47v-2.02h2.39v2.02H392.97z M393.03,424.4v-8.04h2.27v8.04H393.03z"/>
	<path class="st0" d="M397.78,424.4v-10.95h2.27v10.95H397.78z"/>
	<path class="st0" d="M409.88,421.17h-5.58c0.22,1.03,0.94,1.57,1.96,1.57c0.76,0,1.32-0.24,1.94-0.82l1.3,1.16
		c-0.75,0.93-1.82,1.5-3.27,1.5c-2.41,0-4.19-1.69-4.19-4.15v-0.03c0-2.29,1.63-4.18,3.96-4.18c2.68,0,3.9,2.08,3.9,4.36v0.03
		C409.91,420.83,409.89,420.96,409.88,421.17z M406.01,418.04c-0.94,0-1.56,0.68-1.73,1.71h3.42
		C407.56,418.73,406.96,418.04,406.01,418.04z"/>
	<path class="st0" d="M416.55,418.59c-1.51,0-2.44,0.91-2.44,2.83v2.97h-2.27v-8.04h2.27v1.62c0.46-1.11,1.21-1.83,2.56-1.77v2.39
		H416.55z"/>
	<path class="st0" d="M428.84,424.4v-1.16c-0.55,0.75-1.32,1.3-2.5,1.3c-1.87,0-3.65-1.47-3.65-4.15v-0.03
		c0-2.68,1.75-4.15,3.65-4.15c1.21,0,1.96,0.55,2.5,1.2v-3.96h2.27v10.95H428.84z M428.87,420.36c0-1.33-0.88-2.22-1.94-2.22
		c-1.06,0-1.96,0.87-1.96,2.22v0.03c0,1.33,0.9,2.22,1.96,2.22c1.06,0,1.94-0.89,1.94-2.22V420.36z"/>
	<path class="st0" d="M440.84,421.17h-5.58c0.22,1.03,0.94,1.57,1.96,1.57c0.76,0,1.32-0.24,1.94-0.82l1.3,1.16
		c-0.75,0.93-1.82,1.5-3.27,1.5c-2.41,0-4.19-1.69-4.19-4.15v-0.03c0-2.29,1.63-4.18,3.96-4.18c2.68,0,3.9,2.08,3.9,4.36v0.03
		C440.86,420.83,440.85,420.96,440.84,421.17z M436.96,418.04c-0.94,0-1.56,0.68-1.73,1.71h3.42
		C438.52,418.73,437.92,418.04,436.96,418.04z"/>
	<path class="st0" d="M368.05,438.4v-10.95h2.27v10.95H368.05z"/>
	<path class="st0" d="M377.39,438.4v-0.87c-0.55,0.61-1.32,1.02-2.42,1.02c-1.51,0-2.75-0.87-2.75-2.46v-0.03
		c0-1.75,1.33-2.56,3.23-2.56c0.81,0,1.39,0.14,1.96,0.33v-0.14c0-0.95-0.58-1.47-1.72-1.47c-0.87,0-1.48,0.17-2.21,0.43l-0.57-1.74
		c0.88-0.39,1.75-0.65,3.11-0.65c2.48,0,3.57,1.29,3.57,3.46v4.66H377.39z M377.44,435.16c-0.39-0.18-0.9-0.3-1.45-0.3
		c-0.97,0-1.57,0.39-1.57,1.11V436c0,0.61,0.51,0.97,1.24,0.97c1.06,0,1.78-0.58,1.78-1.41V435.16z"/>
	<path class="st0" d="M386.56,438.55c-1.21,0-1.96-0.55-2.5-1.2v3.45h-2.27v-10.44h2.27v1.15c0.55-0.75,1.32-1.3,2.5-1.3
		c1.87,0,3.65,1.47,3.65,4.15v0.03C390.21,437.08,388.46,438.55,386.56,438.55z M387.93,434.36c0-1.33-0.9-2.22-1.96-2.22
		c-1.06,0-1.94,0.88-1.94,2.22v0.03c0,1.33,0.88,2.22,1.94,2.22c1.06,0,1.96-0.87,1.96-2.22V434.36z"/>
	<path class="st0" d="M394.83,438.53c-1.39,0-2.33-0.55-2.33-2.41v-3.81h-0.96v-1.95h0.96v-2.05h2.27v2.05h1.88v1.95h-1.88v3.44
		c0,0.52,0.22,0.78,0.73,0.78c0.42,0,0.79-0.1,1.12-0.28v1.83C396.14,438.35,395.59,438.53,394.83,438.53z"/>
	<path class="st0" d="M402.28,438.58c-2.48,0-4.32-1.84-4.32-4.15v-0.03c0-2.31,1.85-4.18,4.35-4.18c2.48,0,4.32,1.84,4.32,4.15
		v0.03C406.63,436.7,404.77,438.58,402.28,438.58z M404.38,434.39c0-1.18-0.85-2.22-2.11-2.22c-1.3,0-2.08,1.01-2.08,2.19v0.03
		c0,1.19,0.85,2.22,2.11,2.22c1.3,0,2.08-1,2.08-2.19V434.39z"/>
	<path class="st0" d="M413.28,438.55c-1.21,0-1.96-0.55-2.5-1.2v3.45h-2.27v-10.44h2.27v1.15c0.55-0.75,1.32-1.3,2.5-1.3
		c1.87,0,3.65,1.47,3.65,4.15v0.03C416.93,437.08,415.18,438.55,413.28,438.55z M414.66,434.36c0-1.33-0.9-2.22-1.96-2.22
		c-1.06,0-1.94,0.88-1.94,2.22v0.03c0,1.33,0.88,2.22,1.94,2.22c1.06,0,1.96-0.87,1.96-2.22V434.36z"/>
	<path class="st0" d="M421.66,438.55c-1.12,0-2.38-0.38-3.44-1.21l0.97-1.5c0.87,0.63,1.78,0.96,2.53,0.96
		c0.66,0,0.96-0.24,0.96-0.6v-0.03c0-0.5-0.78-0.66-1.66-0.93c-1.12-0.33-2.39-0.85-2.39-2.42v-0.03c0-1.63,1.32-2.55,2.93-2.55
		c1.02,0,2.12,0.34,2.99,0.93l-0.87,1.57c-0.79-0.46-1.59-0.75-2.17-0.75c-0.55,0-0.84,0.24-0.84,0.55v0.03
		c0,0.45,0.76,0.66,1.63,0.96c1.12,0.38,2.42,0.92,2.42,2.39v0.03C424.72,437.74,423.39,438.55,421.66,438.55z"/>
</g>
<g>
	<g>
		<path class="st0" d="M344.94,398.21c-5.85-0.08-10.5-3.26-12.23-8.48c-2.42-7.34,1.81-15.41,10.24-16.52
			c4.63-0.61,8.8,0.45,11.91,4.09c3.35,3.92,3.9,8.49,2.06,13.22c-1.77,4.56-5.37,6.92-10.15,7.57c-0.5,0.07-1,0.08-1.51,0.12
			C345.17,398.21,345.05,398.21,344.94,398.21z M338.28,385.99c0.05,1.84,0.71,3.85,2.58,5.25c2.3,1.71,4.83,1.91,7.34,0.6
			c2.59-1.35,3.53-3.73,3.42-6.53c-0.12-3.23-1.77-5.52-4.42-6.38C342.57,377.44,338.31,380.61,338.28,385.99z"/>
		<path class="st0" d="M384.81,397.75c-3.59,0.33-6.87,0.08-11.03-5.11c-0.36-0.44-1.37-2.36-1.37-2.36l-3.17,0.01v7.4h-6.18V373.5
			c0,0,7.66-0.01,11.3,0.07c1.87,0.04,3.65,0.56,5.23,1.59c4.25,2.78,4.46,9.41,0.42,12.68c-0.5,0.4-1.03,0.75-1.6,1.16
			C380.58,392.22,382.46,394.61,384.81,397.75z M369.27,378.64v6.55c0,0,3.14,0.12,4.67-0.1c1.59-0.23,2.51-1.61,2.53-3.15
			c0.02-1.47-1.01-2.83-2.58-3.13C372.61,378.56,369.27,378.64,369.27,378.64z"/>
		<path class="st0" d="M399.18,398.08c1.36-0.01,2.71-0.21,4.06-0.59c3.82-1.07,6.3-3.99,6.52-8.03c0.21-3.85,0.18-15.93,0.18-15.93
			h-6.31c0,0,0.04,9.85-0.06,14.27c-0.07,2.83-1.97,4.66-4.4,4.71h-0.02c-2.43-0.05-4.33-1.87-4.4-4.71
			c-0.1-4.42-0.06-14.27-0.06-14.27h-6.31c0,0-0.03,12.08,0.18,15.93c0.22,4.05,2.7,6.96,6.52,8.03c1.34,0.38,2.7,0.57,4.06,0.59
			H399.18z"/>
		<path class="st0" d="M435.76,380.55c-1.54-0.56-3.06-1.34-4.67-1.65c-1.53-0.29-3.2-0.32-4.73-0.04
			c-3.55,0.64-5.57,3.64-5.27,7.45c0.36,4.49,3.99,7.1,8.62,6.16c0.43-0.09,0.86-0.2,1.33-0.31c-0.67-4.75,1.05-8.18,4.87-9.1
			c0,0.34,1.07,12.55,1.07,12.55s-0.2,0.15-0.41,0.26c-4.67,2.46-9.51,3.24-14.52,1.09c-4.95-2.12-7.81-7.23-7.15-12.58
			c0.85-6.85,5.7-11.21,12.62-11.35c2.35-0.05,4.62,0.29,6.83,1.1c0.51,0.19,0.73,0.34,0.73,0.34S435.56,378.87,435.76,380.55z"/>
		<path class="st0" d="M440.02,397.75c1.45-3.37,10.36-24.23,10.36-24.23h4.3l10.26,24.2h-6.49l-1.64-4.33h-8.74l-1.67,4.35
			C446.42,397.75,442.11,397.75,440.02,397.75z M454.92,388.5c-0.82-2.13-1.59-4.13-2.45-6.34c-0.87,2.24-1.66,4.25-2.47,6.34
			C451.67,388.5,453.22,388.5,454.92,388.5z"/>
	</g>
</g>
<g>
	<path class="st0" d="M168.56,327.86c0.01,0,0.02-0.01,0.04-0.01c0-0.08-0.01-0.15-0.01-0.23
		C168.58,327.62,168.12,327.98,168.56,327.86z"/>
	<path class="st0" d="M235.4,367.06c-9.95-30.09-41.47-46.98-71.71-39.2c1.66,35.39,25.09,65.09,57.19,76.02
		c-12.39,8.37-20.72,22.29-21.43,38.19l0.46-0.27c16.45-6.27,28.65-19.13,34.56-34.53c1.3-3.4,2.3-6.93,2.97-10.54
		C239.22,387.13,238.68,376.97,235.4,367.06z"/>
	<path class="st0" d="M324.43,328.01c-30.42-8.16-62.29,8.76-72.31,39.04c-3.26,9.87-3.82,19.98-2.07,29.53
		c0.68,3.69,1.69,7.29,3.03,10.76c5.92,15.36,18.1,28.18,34.52,34.44l1.07,0.29c-0.7-15.91-9.04-29.84-21.43-38.21
		C299.3,392.96,322.71,363.34,324.43,328.01z"/>
</g>
<g>
	<rect x="386.63" y="1767.64" class="st2" width="69.22" height="91.77"/>
	<rect x="393.17" y="1773.1" class="st1" width="56.13" height="56.13"/>
	<g>
		<path d="M401.31,1838.96h0.22v3.94h-0.28v-3.64l-0.75,0.26l-0.08-0.23L401.31,1838.96z"/>
		<path d="M403.84,1842.97c-0.48,0-0.85-0.21-1.18-0.49l0.18-0.22c0.33,0.3,0.64,0.45,1,0.45c0.79,0,1.34-0.84,1.29-2.02
			c-0.22,0.4-0.6,0.75-1.21,0.75c-0.79,0-1.35-0.53-1.35-1.2c0-0.73,0.56-1.32,1.37-1.32c0.42,0,0.76,0.16,0.99,0.4
			c0.31,0.31,0.49,0.74,0.49,1.53C405.43,1842.09,404.75,1842.97,403.84,1842.97z M403.91,1839.19c-0.64,0-1.04,0.5-1.04,1.04
			c0,0.55,0.44,0.95,1.06,0.95c0.66,0,1.09-0.5,1.09-1C405.02,1839.63,404.56,1839.19,403.91,1839.19z"/>
		<path d="M406.32,1839.27v-0.27h2.44v0.21l-1.32,1.51c0.74,0.04,1.38,0.39,1.38,1.11c0,0.69-0.6,1.14-1.27,1.14
			c-0.63,0-1.11-0.29-1.43-0.7l0.22-0.18c0.31,0.4,0.7,0.63,1.21,0.63c0.52,0,0.96-0.35,0.96-0.87c0-0.55-0.51-0.85-1.21-0.85h-0.21
			l-0.07-0.16l1.34-1.55H406.32z"/>
		<path d="M400.82,1845.13l-0.22-0.15c0.34-0.52,0.7-0.84,1.39-0.84c0.66,0,1.16,0.46,1.16,1.08c0,0.54-0.29,0.9-0.97,1.52
			l-1.19,1.08h2.21v0.28h-2.66v-0.22l1.45-1.32c0.64-0.59,0.86-0.92,0.86-1.33c0-0.51-0.41-0.84-0.88-0.84
			C401.46,1844.4,401.14,1844.66,400.82,1845.13z"/>
		<path d="M406.22,1844.17v2.73h0.64v0.25h-0.64v0.96h-0.28v-0.96h-2.11l-0.1-0.22l2.23-2.76H406.22z M405.94,1844.59l-1.86,2.31
			h1.86V1844.59z"/>
		<path d="M407.75,1844.48v-0.27h2.44v0.21l-1.32,1.51c0.74,0.04,1.38,0.39,1.38,1.11c0,0.69-0.6,1.14-1.27,1.14
			c-0.63,0-1.11-0.29-1.43-0.7l0.22-0.18c0.31,0.4,0.7,0.63,1.21,0.63c0.52,0,0.96-0.35,0.96-0.87c0-0.55-0.51-0.85-1.21-0.85h-0.21
			l-0.07-0.16l1.34-1.55H407.75z"/>
		<path d="M400.82,1850.34l-0.22-0.15c0.34-0.52,0.7-0.84,1.39-0.84c0.66,0,1.16,0.46,1.16,1.08c0,0.54-0.29,0.9-0.97,1.52
			l-1.19,1.08h2.21v0.28h-2.66v-0.22l1.45-1.32c0.64-0.59,0.86-0.92,0.86-1.33c0-0.51-0.41-0.84-0.88-0.84
			C401.46,1849.61,401.14,1849.87,400.82,1850.34z"/>
		<path d="M406.22,1849.38v2.73h0.64v0.25h-0.64v0.96h-0.28v-0.96h-2.11l-0.1-0.22l2.23-2.76H406.22z M405.94,1849.8l-1.86,2.31
			h1.86V1849.8z"/>
	</g>
	<g>
		<path d="M396.56,1842.9l-1.24-1.62h-1.28v1.62h-0.29v-3.91h1.64c0.84,0,1.39,0.46,1.39,1.11v0.01c0,0.65-0.48,1.03-1.14,1.12
			l1.29,1.67H396.56z M396.49,1840.11c0-0.52-0.41-0.85-1.12-0.85h-1.33v1.76h1.31c0.65,0,1.14-0.33,1.14-0.89V1840.11z"/>
		<path d="M395.54,1848.18c-1.23,0-1.96-0.91-1.96-2.01v-0.01c0-1.06,0.76-2.02,1.93-2.02c0.63,0,1.04,0.19,1.43,0.51l-0.19,0.22
			c-0.31-0.27-0.66-0.47-1.25-0.47c-0.95,0-1.61,0.8-1.61,1.75v0.01c0,1.01,0.63,1.76,1.67,1.76c0.5,0,0.96-0.21,1.24-0.45v-1.12
			h-1.3v-0.27h1.58v1.51C396.72,1847.9,396.17,1848.18,395.54,1848.18z"/>
		<path d="M395.45,1853.32h-1.69v-3.91h1.61c0.76,0,1.26,0.37,1.26,0.96v0.01c0,0.53-0.35,0.8-0.66,0.93
			c0.47,0.12,0.88,0.39,0.88,0.93v0.01C396.84,1852.91,396.29,1853.32,395.45,1853.32z M396.33,1850.4c0-0.43-0.35-0.72-0.97-0.72
			h-1.31v1.54h1.29c0.58,0,1-0.28,1-0.8V1850.4z M396.55,1852.24c0-0.48-0.42-0.76-1.19-0.76h-1.32v1.57h1.41
			c0.67,0,1.09-0.31,1.09-0.8V1852.24z"/>
	</g>
</g>
<g>
	<rect x="299.46" y="1767.64" class="st2" width="69.22" height="91.77"/>
	<rect x="306.01" y="1773.1" class="st4" width="56.13" height="56.13"/>
	<g>
		<path d="M315.85,1838.96v2.73h0.64v0.25h-0.64v0.96h-0.28v-0.96h-2.11l-0.1-0.22l2.23-2.76H315.85z M315.57,1839.38l-1.86,2.31
			h1.86V1839.38z"/>
		<path d="M314.15,1844.17h0.22v3.94h-0.28v-3.64l-0.75,0.26l-0.08-0.23L314.15,1844.17z"/>
		<path d="M315.61,1845.13l-0.22-0.15c0.34-0.52,0.7-0.84,1.39-0.84c0.66,0,1.16,0.46,1.16,1.08c0,0.54-0.29,0.9-0.97,1.52
			l-1.19,1.08h2.21v0.28h-2.66v-0.22l1.45-1.32c0.64-0.59,0.86-0.92,0.86-1.33c0-0.51-0.41-0.84-0.88-0.84
			C316.25,1844.4,315.93,1844.66,315.61,1845.13z"/>
		<path d="M319.47,1844.17h0.22v3.94h-0.28v-3.64l-0.75,0.26l-0.08-0.23L319.47,1844.17z"/>
		<path d="M314.15,1849.38h0.22v3.94h-0.28v-3.64l-0.75,0.26l-0.08-0.23L314.15,1849.38z"/>
		<path d="M315.55,1849.69v-0.27h2.44v0.21l-1.32,1.51c0.74,0.04,1.38,0.39,1.38,1.11c0,0.69-0.6,1.15-1.27,1.15
			c-0.63,0-1.11-0.29-1.43-0.7l0.22-0.18c0.31,0.4,0.7,0.63,1.21,0.63c0.52,0,0.96-0.35,0.96-0.87c0-0.55-0.51-0.85-1.21-0.85h-0.21
			l-0.07-0.16l1.34-1.55H315.55z"/>
		<path d="M320.5,1853.39c-0.99,0-1.61-0.93-1.61-2.02c0-1.08,0.63-2.03,1.62-2.03c0.99,0,1.61,0.93,1.61,2.02
			S321.49,1853.39,320.5,1853.39z M320.5,1849.61c-0.81,0-1.31,0.84-1.31,1.75c0,0.92,0.51,1.76,1.32,1.76
			c0.81,0,1.31-0.84,1.31-1.75C321.82,1850.46,321.31,1849.61,320.5,1849.61z"/>
	</g>
	<g>
		<path d="M309.39,1842.9l-1.24-1.62h-1.28v1.62h-0.29v-3.91h1.64c0.84,0,1.39,0.46,1.39,1.11v0.01c0,0.65-0.48,1.03-1.14,1.12
			l1.29,1.67H309.39z M309.33,1840.11c0-0.52-0.41-0.85-1.12-0.85h-1.33v1.76h1.31c0.65,0,1.14-0.33,1.14-0.89V1840.11z"/>
		<path d="M308.37,1848.18c-1.23,0-1.96-0.91-1.96-2.01v-0.01c0-1.06,0.76-2.02,1.93-2.02c0.63,0,1.04,0.19,1.43,0.51l-0.19,0.22
			c-0.31-0.27-0.66-0.47-1.25-0.47c-0.95,0-1.61,0.8-1.61,1.75v0.01c0,1.01,0.63,1.76,1.67,1.76c0.5,0,0.96-0.21,1.24-0.45v-1.12
			h-1.3v-0.27h1.58v1.51C309.55,1847.9,309.01,1848.18,308.37,1848.18z"/>
		<path d="M308.28,1853.32h-1.69v-3.91h1.61c0.76,0,1.26,0.37,1.26,0.96v0.01c0,0.53-0.35,0.8-0.66,0.93
			c0.47,0.12,0.88,0.39,0.88,0.93v0.01C309.68,1852.91,309.12,1853.32,308.28,1853.32z M309.16,1850.4c0-0.43-0.35-0.72-0.97-0.72
			h-1.31v1.54h1.29c0.58,0,1-0.28,1-0.8V1850.4z M309.38,1852.24c0-0.48-0.42-0.76-1.19-0.76h-1.32v1.57h1.41
			c0.67,0,1.09-0.31,1.09-0.8V1852.24z"/>
	</g>
</g>
<g>
	<rect x="473.79" y="1767.64" class="st2" width="69.22" height="91.77"/>
	<rect x="480.34" y="1773.1" class="st5" width="56.13" height="56.13"/>
	<g>
		<path d="M487.98,1839.92l-0.22-0.15c0.34-0.52,0.7-0.84,1.39-0.84c0.66,0,1.16,0.46,1.16,1.08c0,0.54-0.29,0.9-0.97,1.52
			l-1.19,1.08h2.21v0.28h-2.66v-0.22l1.45-1.32c0.64-0.59,0.86-0.92,0.86-1.33c0-0.51-0.41-0.84-0.88-0.84
			C488.63,1839.19,488.31,1839.45,487.98,1839.92z"/>
		<path d="M491.85,1838.96h0.22v3.94h-0.28v-3.64l-0.75,0.26l-0.08-0.23L491.85,1838.96z"/>
		<path d="M494.5,1842.96c-0.82,0-1.45-0.45-1.45-1.11c0-0.46,0.37-0.81,0.86-0.97c-0.38-0.16-0.73-0.45-0.73-0.92
			c0-0.61,0.64-1.03,1.31-1.03c0.67,0,1.31,0.41,1.31,1.03c0,0.47-0.35,0.76-0.73,0.92c0.49,0.16,0.86,0.51,0.86,0.97
			C495.95,1842.5,495.32,1842.96,494.5,1842.96z M494.5,1841.02c-0.63,0-1.15,0.35-1.15,0.84c0,0.45,0.43,0.83,1.15,0.83
			s1.15-0.39,1.15-0.83C495.65,1841.37,495.14,1841.02,494.5,1841.02z M494.5,1839.2c-0.57,0-1.01,0.32-1.01,0.77
			c0,0.49,0.46,0.81,1.01,0.81s1.01-0.32,1.01-0.81C495.52,1839.52,495.07,1839.2,494.5,1839.2z"/>
		<path d="M487.98,1845.13l-0.22-0.15c0.34-0.52,0.7-0.84,1.39-0.84c0.66,0,1.16,0.46,1.16,1.08c0,0.54-0.29,0.9-0.97,1.52
			l-1.19,1.08h2.21v0.28h-2.66v-0.22l1.45-1.32c0.64-0.59,0.86-0.92,0.86-1.33c0-0.51-0.41-0.84-0.88-0.84
			C488.63,1844.4,488.31,1844.66,487.98,1845.13z"/>
		<path d="M491.3,1844.48v-0.27h2.44v0.21l-1.32,1.51c0.74,0.04,1.38,0.39,1.38,1.11c0,0.69-0.6,1.14-1.27,1.14
			c-0.63,0-1.11-0.29-1.43-0.7l0.22-0.18c0.31,0.4,0.7,0.63,1.21,0.63c0.52,0,0.96-0.35,0.96-0.87c0-0.55-0.51-0.85-1.21-0.85h-0.21
			l-0.07-0.16l1.34-1.55H491.3z"/>
		<path d="M495.34,1844.17h0.22v3.94h-0.28v-3.64l-0.75,0.26l-0.08-0.23L495.34,1844.17z"/>
		<path d="M488.48,1849.38h0.22v3.94h-0.28v-3.64l-0.75,0.26l-0.08-0.23L488.48,1849.38z"/>
		<path d="M492.26,1850.02c-0.3-0.27-0.6-0.41-0.96-0.41c-0.79,0-1.3,0.83-1.28,2.03c0.22-0.38,0.58-0.73,1.22-0.73
			c0.72,0,1.34,0.49,1.34,1.19c0,0.75-0.6,1.29-1.36,1.29c-0.4,0-0.76-0.16-0.99-0.39c-0.32-0.32-0.5-0.71-0.5-1.53
			c0-1.18,0.62-2.12,1.59-2.12c0.45,0,0.79,0.17,1.13,0.45L492.26,1850.02z M491.22,1851.17c-0.64,0-1.09,0.49-1.09,0.97
			c0,0.56,0.47,0.99,1.1,0.99c0.63,0,1.04-0.46,1.04-1.02C492.28,1851.57,491.84,1851.17,491.22,1851.17z"/>
		<path d="M493.98,1849.38h0.22v3.94h-0.28v-3.64l-0.75,0.26l-0.08-0.23L493.98,1849.38z"/>
	</g>
	<g>
		<path d="M483.72,1842.9l-1.24-1.62h-1.28v1.62h-0.29v-3.91h1.64c0.84,0,1.39,0.46,1.39,1.11v0.01c0,0.65-0.48,1.03-1.14,1.12
			l1.29,1.67H483.72z M483.66,1840.11c0-0.52-0.41-0.85-1.12-0.85h-1.33v1.76h1.31c0.65,0,1.14-0.33,1.14-0.89V1840.11z"/>
		<path d="M482.71,1848.18c-1.23,0-1.96-0.91-1.96-2.01v-0.01c0-1.06,0.76-2.02,1.93-2.02c0.63,0,1.04,0.19,1.43,0.51l-0.19,0.22
			c-0.31-0.27-0.66-0.47-1.25-0.47c-0.95,0-1.61,0.8-1.61,1.75v0.01c0,1.01,0.63,1.76,1.67,1.76c0.5,0,0.96-0.21,1.24-0.45v-1.12
			h-1.3v-0.27h1.58v1.51C483.89,1847.9,483.34,1848.18,482.71,1848.18z"/>
		<path d="M482.61,1853.32h-1.69v-3.91h1.61c0.76,0,1.26,0.37,1.26,0.96v0.01c0,0.53-0.35,0.8-0.66,0.93
			c0.47,0.12,0.88,0.39,0.88,0.93v0.01C484.01,1852.91,483.45,1853.32,482.61,1853.32z M483.5,1850.4c0-0.43-0.35-0.72-0.97-0.72
			h-1.31v1.54h1.29c0.58,0,1-0.28,1-0.8V1850.4z M483.71,1852.24c0-0.48-0.42-0.76-1.19-0.76h-1.32v1.57h1.41
			c0.67,0,1.09-0.31,1.09-0.8V1852.24z"/>
	</g>
</g>
<g>
	<circle class="st6" cx="419.76" cy="889.43" r="79.92"/>
</g>
<g>
	<circle class="st7" cx="484.78" cy="948.83" r="59.81"/>
</g>
<g>
	<circle class="st7" cx="354.42" cy="948.83" r="59.81"/>
</g>
<g>
	<circle class="st8" cx="419.8" cy="1004.86" r="44.04"/>
</g>
<polyline class="st9" points="284.2,2384.42 284.2,2396.27 492.25,2396.27 492.25,2384.89 "/>
<polyline class="st9" points="504.59,2299.16 504.59,2287.31 182.12,2287.31 182.12,2298.68 "/>
<line class="st9" x1="388.22" y1="2396.27" x2="388.22" y2="2406.22"/>
<line class="st9" x1="343.14" y1="2277.35" x2="343.14" y2="2287.31"/>
<g>
	<g>
		<path class="st0" d="M486.72,345.55c-5.85-0.08-10.5-3.26-12.23-8.48c-2.42-7.34,1.81-15.41,10.24-16.52
			c4.63-0.61,8.8,0.45,11.91,4.09c3.35,3.92,3.9,8.49,2.06,13.22c-1.77,4.56-5.37,6.92-10.15,7.57c-0.5,0.07-1,0.08-1.51,0.12
			C486.94,345.55,486.83,345.55,486.72,345.55z M480.06,333.33c0.05,1.84,0.71,3.85,2.58,5.25c2.3,1.71,4.83,1.91,7.34,0.6
			c2.59-1.35,3.53-3.73,3.42-6.53c-0.12-3.23-1.77-5.52-4.42-6.38C484.35,324.78,480.09,327.95,480.06,333.33z"/>
		<path class="st0" d="M526.59,345.09c-3.59,0.33-6.87,0.08-11.03-5.11c-0.36-0.44-1.37-2.36-1.37-2.36l-3.17,0.01v7.4h-6.18v-24.18
			c0,0,7.66-0.01,11.3,0.07c1.87,0.04,3.65,0.56,5.23,1.59c4.25,2.78,4.46,9.41,0.42,12.68c-0.5,0.4-1.03,0.75-1.6,1.16
			C522.35,339.55,524.23,341.95,526.59,345.09z M511.04,325.98v6.55c0,0,3.14,0.12,4.67-0.1c1.59-0.23,2.51-1.61,2.53-3.15
			c0.02-1.47-1.01-2.83-2.58-3.13C514.39,325.9,511.04,325.98,511.04,325.98z"/>
		<path class="st0" d="M540.96,345.42c1.36-0.01,2.71-0.21,4.06-0.59c3.82-1.07,6.3-3.99,6.52-8.03c0.21-3.85,0.18-15.93,0.18-15.93
			h-6.31c0,0,0.04,9.85-0.06,14.27c-0.07,2.83-1.97,4.66-4.4,4.71h-0.02c-2.43-0.05-4.33-1.87-4.4-4.71
			c-0.1-4.42-0.06-14.27-0.06-14.27h-6.31c0,0-0.03,12.08,0.18,15.93c0.22,4.05,2.7,6.96,6.52,8.03c1.34,0.38,2.7,0.57,4.06,0.59
			H540.96z"/>
		<path class="st0" d="M577.53,327.89c-1.54-0.56-3.06-1.34-4.67-1.65c-1.53-0.29-3.2-0.32-4.73-0.04
			c-3.55,0.64-5.57,3.64-5.27,7.45c0.36,4.49,3.99,7.1,8.62,6.16c0.43-0.09,0.86-0.2,1.33-0.31c-0.67-4.75,1.05-8.18,4.87-9.1
			c0,0.34,1.07,12.55,1.07,12.55s-0.2,0.15-0.41,0.26c-4.67,2.46-9.51,3.24-14.52,1.09c-4.95-2.12-7.81-7.23-7.15-12.58
			c0.85-6.85,5.7-11.21,12.62-11.35c2.35-0.05,4.62,0.29,6.83,1.1c0.51,0.19,0.73,0.34,0.73,0.34S577.34,326.2,577.53,327.89z"/>
		<path class="st0" d="M581.8,345.09c1.45-3.37,10.36-24.23,10.36-24.23h4.3l10.26,24.2h-6.49l-1.64-4.33h-8.74l-1.67,4.35
			C588.19,345.09,583.88,345.09,581.8,345.09z M596.7,335.84c-0.82-2.13-1.59-4.13-2.45-6.34c-0.87,2.24-1.66,4.25-2.47,6.34
			C593.45,335.84,595,335.84,596.7,335.84z"/>
	</g>
</g>
<g>
	<path class="st0" d="M604.72,299.77C604.72,299.77,604.72,299.77,604.72,299.77c0.01-0.02,0.01-0.04,0.01-0.06
		C604.72,299.71,604.6,299.8,604.72,299.77z"/>
	<path class="st0" d="M622.12,309.97c-2.59-7.83-10.79-12.23-18.67-10.21c0.43,9.21,6.53,16.94,14.89,19.79
		c-3.22,2.18-5.39,5.8-5.58,9.94l0.12-0.07c4.28-1.63,7.46-4.98,8.99-8.99c0.34-0.89,0.6-1.8,0.77-2.74
		C623.11,315.2,622.97,312.55,622.12,309.97z"/>
	<path class="st0" d="M645.29,299.81c-7.92-2.12-16.22,2.28-18.82,10.16c-0.85,2.57-0.99,5.2-0.54,7.69c0.18,0.96,0.44,1.9,0.79,2.8
		c1.54,4,4.71,7.34,8.99,8.97l0.28,0.08c-0.18-4.14-2.35-7.77-5.58-9.95C638.75,316.72,644.84,309.01,645.29,299.81z"/>
</g>
<g>
	<path class="st0" d="M31.51,89.88C17.23,89.69,5.87,81.93,1.67,69.18c-5.91-17.92,4.41-37.62,24.99-40.32
		c11.31-1.48,21.48,1.11,29.08,9.99c8.18,9.57,9.52,20.72,5.04,32.27C56.46,82.24,47.66,88,36.01,89.59
		c-1.22,0.17-2.45,0.2-3.68,0.29C32.06,89.9,31.78,89.88,31.51,89.88z M15.25,60.07c0.13,4.49,1.73,9.41,6.29,12.81
		c5.61,4.19,11.79,4.66,17.93,1.46c6.31-3.29,8.61-9.12,8.35-15.93c-0.3-7.89-4.32-13.48-10.79-15.57
		C25.72,39.19,15.32,46.93,15.25,60.07z"/>
	<path class="st0" d="M128.84,88.76c-8.77,0.82-16.78,0.2-26.93-12.48c-0.87-1.08-3.35-5.77-3.35-5.77l-7.73,0.03V88.6H75.73V29.58
		c0,0,18.7-0.02,27.58,0.17c4.56,0.1,8.91,1.36,12.77,3.89c10.37,6.77,10.9,22.96,1.02,30.96c-1.21,0.98-2.52,1.83-3.9,2.83
		C118.5,75.26,123.08,81.1,128.84,88.76z M90.88,42.11v16c0,0,7.68,0.3,11.4-0.26c3.87-0.57,6.13-3.93,6.17-7.7
		c0.04-3.59-2.46-6.9-6.29-7.63C99.06,41.94,90.88,42.11,90.88,42.11z"/>
	<path class="st0" d="M163.9,89.58c3.32-0.03,6.62-0.52,9.9-1.43c9.32-2.61,15.38-9.73,15.92-19.6c0.51-9.4,0.45-38.89,0.45-38.89
		h-15.39c0,0,0.1,24.04-0.14,34.83c-0.16,6.92-4.81,11.36-10.73,11.49h-0.05c-5.92-0.13-10.57-4.57-10.73-11.49
		c-0.25-10.79-0.14-34.83-0.14-34.83h-15.39c0,0-0.07,29.49,0.45,38.89c0.54,9.87,6.6,17,15.92,19.6c3.28,0.92,6.58,1.4,9.9,1.43
		H163.9z"/>
	<path class="st0" d="M253.18,46.79c-3.76-1.38-7.47-3.28-11.39-4.02c-3.74-0.7-7.81-0.77-11.55-0.1
		c-8.67,1.56-13.59,8.89-12.85,18.18c0.87,10.97,9.75,17.32,21.04,15.03c1.06-0.21,2.1-0.49,3.25-0.77
		c-1.65-11.61,2.56-19.97,11.89-22.21c0,0.83,2.62,30.64,2.62,30.64s-0.49,0.37-1.01,0.65c-11.41,6.01-23.21,7.91-35.43,2.67
		c-12.09-5.18-19.06-17.65-17.45-30.71c2.07-16.72,13.92-27.36,30.82-27.69c5.73-0.11,11.28,0.71,16.67,2.68
		c1.24,0.45,1.79,0.82,1.79,0.82S252.71,42.67,253.18,46.79z"/>
	<path class="st0" d="M263.6,88.77c3.53-8.23,25.28-59.14,25.28-59.14h10.51l25.05,59.07H308.6l-4-10.56h-21.32l-4.07,10.62
		C279.2,88.77,268.68,88.77,263.6,88.77z M299.96,66.19c-2-5.19-3.89-10.08-5.97-15.47c-2.13,5.47-4.04,10.38-6.02,15.47
		C292.03,66.19,295.82,66.19,299.96,66.19z"/>
	<g>
		<path class="st0" d="M324.82,0.99c0.01,0,0.01,0,0.02,0c0-0.04-0.01-0.08-0.01-0.12C324.83,0.86,324.59,1.05,324.82,0.99z"/>
		<path class="st0" d="M359.62,21.4c-5.18-15.67-21.59-24.47-37.34-20.41c0.86,18.43,13.06,33.89,29.78,39.58
			c-6.45,4.36-10.79,11.61-11.16,19.89l0.24-0.14c8.57-3.27,14.92-9.96,17.99-17.98c0.68-1.77,1.2-3.61,1.55-5.49
			C361.61,31.85,361.33,26.56,359.62,21.4z"/>
		<path class="st0" d="M405.98,1.07c-15.84-4.25-32.44,4.56-37.65,20.33c-1.7,5.14-1.99,10.4-1.08,15.38
			c0.35,1.92,0.88,3.8,1.58,5.61c3.08,8,9.42,14.68,17.98,17.94l0.56,0.15c-0.37-8.29-4.71-15.54-11.16-19.9
			C392.9,34.89,405.09,19.46,405.98,1.07z"/>
	</g>
</g>
</svg>